<?xml version="1.0" standalone="no"?>
<!DOCTYPE svg PUBLIC "-//W3C//DTD SVG 20010904//EN"
 "http://www.w3.org/TR/2001/REC-SVG-20010904/DTD/svg10.dtd">
<svg version="1.0" xmlns="http://www.w3.org/2000/svg"
 width="128.000000pt" height="161.000000pt" viewBox="0 0 128.000000 161.000000"
 preserveAspectRatio="xMidYMid meet">

<g transform="translate(0.000000,161.000000) scale(0.100000,-0.100000)"
fill="#000000" stroke="none">
<path d="M17 1603 c-4 -3 -7 -361 -7 -793 0 -652 2 -789 14 -799 9 -8 182 -10
627 -9 l614 3 3 632 2 631 -25 30 c-14 16 -25 35 -25 41 0 20 -37 12 -43 -9
-5 -18 -14 -20 -100 -20 -85 0 -96 2 -102 19 -9 29 -4 154 7 169 16 19 36 14
40 -10 2 -15 11 -24 25 -26 14 -2 23 -11 25 -25 2 -14 11 -23 26 -25 31 -5 29
25 -3 40 -14 6 -25 17 -25 25 0 7 -11 19 -25 25 -14 6 -25 16 -25 22 0 5 -18
27 -41 48 l-41 38 -457 0 c-252 0 -461 -3 -464 -7z m901 -195 l3 -148 26 -6
c14 -4 79 -4 144 -1 89 4 121 2 129 -8 7 -8 9 -202 8 -606 l-3 -594 -580 0
-580 0 -3 745 c-1 410 0 751 3 758 3 10 94 12 427 10 l423 -3 3 -147z"/>
<path d="M600 1149 c-51 -14 -100 -38 -100 -49 0 -6 -7 -10 -15 -10 -8 0 -15
-4 -15 -10 0 -5 -5 -10 -11 -10 -15 0 -59 -42 -59 -57 0 -7 -7 -13 -15 -13 -8
0 -15 -7 -15 -15 0 -8 -4 -15 -10 -15 -5 0 -10 -9 -10 -20 0 -11 -7 -20 -15
-20 -10 0 -15 -10 -15 -30 0 -19 -5 -30 -14 -30 -7 0 -16 -14 -20 -31 -9 -48
-7 -99 4 -99 6 0 10 -7 10 -15 0 -8 7 -15 15 -15 7 0 18 -6 22 -13 13 -21 79
-47 134 -54 45 -5 50 -8 45 -27 -14 -49 -18 -133 -7 -140 6 -4 11 -16 11 -27
0 -10 5 -19 10 -19 6 0 10 -7 10 -15 0 -8 7 -15 15 -15 9 0 18 -7 21 -15 7
-19 66 -20 96 -3 68 41 94 102 86 207 l-4 59 45 6 c49 7 101 26 101 38 0 5 9
8 20 8 11 0 20 7 20 15 0 8 6 15 14 15 25 0 31 110 7 130 -13 11 -31 51 -31
70 0 11 -7 20 -15 20 -8 0 -15 7 -15 15 0 8 -4 15 -10 15 -5 0 -10 6 -10 13 0
7 -13 23 -30 37 -16 14 -30 30 -30 37 0 7 -7 13 -15 13 -8 0 -15 7 -15 15 0 8
-6 15 -14 15 -8 0 -16 6 -19 13 -3 7 -28 18 -57 25 -58 14 -53 14 -100 1z m98
-50 c26 -7 49 -13 50 -15 6 -4 -37 -44 -48 -44 -5 0 -10 -6 -10 -14 0 -7 -3
-28 -6 -45 -5 -24 -3 -31 10 -31 9 0 16 -8 16 -20 0 -11 7 -20 15 -20 8 0 15
-4 15 -10 0 -5 9 -10 20 -10 11 0 20 -5 20 -11 0 -6 22 -10 59 -8 41 2 64 -2
73 -12 24 -23 29 -64 13 -95 -12 -24 -15 -26 -16 -9 -1 11 -1 26 0 33 1 7 -6
15 -16 19 -10 4 -21 11 -24 16 -10 14 -99 -3 -99 -19 0 -8 -6 -14 -14 -14 -15
0 -28 -48 -15 -56 5 -3 9 -14 9 -25 0 -15 -7 -19 -33 -19 -29 0 -35 5 -47 35
-8 19 -20 35 -28 35 -8 0 -20 8 -27 17 -10 13 -27 17 -71 17 -34 -1 -60 -6
-62 -13 -2 -6 -12 -11 -23 -11 -10 0 -19 -7 -19 -15 0 -8 -4 -15 -9 -15 -5 0
-17 -8 -27 -17 -13 -13 -19 -14 -22 -5 -2 6 -8 12 -13 12 -6 0 -18 8 -29 18
-17 15 -18 23 -8 60 11 43 18 47 67 43 30 -3 101 29 101 45 0 7 7 14 15 18 17
6 22 96 5 96 -6 0 -9 14 -8 30 2 21 7 30 20 30 10 0 18 4 18 9 0 4 19 13 43
18 58 14 53 14 105 2z m-218 -137 c0 -39 -22 -61 -60 -62 -31 0 -61 19 -42 27
6 2 12 11 12 19 0 8 7 14 15 14 8 0 15 7 15 15 0 8 4 15 9 15 5 0 12 10 15 23
6 22 7 22 21 3 8 -11 15 -35 15 -54z m320 58 c0 -5 7 -10 15 -10 8 0 15 -6 15
-14 0 -8 7 -16 15 -20 8 -3 15 -12 15 -21 0 -8 8 -15 17 -15 16 0 16 -1 1 -16
-14 -14 -23 -14 -72 -3 -34 7 -56 17 -56 26 0 7 -4 13 -10 13 -5 0 -10 13 -10
29 0 23 5 31 23 34 39 8 47 7 47 -3z m60 -265 c0 -31 -41 -45 -65 -22 -21 22
-19 35 8 40 50 10 57 8 57 -18z m-245 -29 c24 -23 18 -36 -17 -36 -18 0 -57
-3 -85 -6 -52 -7 -53 -6 -53 20 0 16 5 26 15 26 8 0 15 5 15 11 0 17 106 4
125 -15z m53 -148 c15 -15 16 -95 1 -137 -9 -26 -16 -31 -43 -31 -49 0 -70 32
-74 113 l-4 67 54 0 c30 0 59 -5 66 -12z"/>
<path d="M590 960 c0 -5 -9 -10 -20 -10 -13 0 -20 -7 -20 -19 0 -11 -5 -21
-11 -23 -8 -3 -10 -16 -5 -41 8 -45 40 -61 98 -52 28 5 38 12 38 25 0 10 5 20
11 22 8 3 9 18 4 46 -5 32 -11 42 -26 42 -10 0 -19 5 -19 10 0 6 -11 10 -25
10 -14 0 -25 -4 -25 -10z m45 -59 c13 -43 -21 -67 -52 -36 -14 14 -14 18 2 35
23 25 42 25 50 1z"/>
<path d="M1127 1404 c-10 -11 6 -42 24 -47 21 -6 34 7 24 23 -9 14 -41 30 -48
24z"/>
</g>
</svg>
